<svg width="454" height="223" viewBox="0 0 454 223" fill="none" xmlns="http://www.w3.org/2000/svg">
<rect x="0.5" y="0.5" width="452.585" height="222" fill="#C4C4C4" stroke="black"/>
<rect x="18.7041" y="18.7031" width="416.177" height="184.833" fill="white" stroke="black"/>
<path d="M290.886 194.557H162.319V162.32H206.692L211.622 179.007H241.204L245.375 162.32H290.886V194.557Z" fill="#C4C4C4" stroke="black"/>
<path d="M162.32 28.8222L290.887 28.8222L290.887 61.0586L246.514 61.0586L241.584 44.3715L212.002 44.3715L207.831 61.0586L162.32 61.0586L162.32 28.8222Z" fill="#C4C4C4" stroke="black"/>
<rect x="201.689" y="107.832" width="50.0612" height="7.58504" fill="#00BFAB"/>
<rect x="96.3296" y="111.498" width="50.0612" height="7.58504" fill="#00BFAB"/>
<rect x="304.16" y="111.498" width="50.0612" height="7.58504" fill="#00BFAB"/>
<rect x="361.806" y="94.8125" width="50.0612" height="7.58504" transform="rotate(-90 361.806 94.8125)" fill="#00BFAB"/>
<rect x="369.392" y="111.498" width="50.0612" height="7.58504" fill="#00BFAB"/>
<rect x="18.7041" y="18.7031" width="416.177" height="184.833" fill="white" stroke="black"/>
<path d="M290.886 194.557H162.319V162.32H206.692L211.622 179.007H241.204L245.375 162.32H290.886V194.557Z" fill="#C4C4C4" stroke="black"/>
<path d="M162.32 28.8222L290.887 28.8222L290.887 61.0586L246.514 61.0586L241.584 44.3715L212.002 44.3715L207.831 61.0586L162.32 61.0586L162.32 28.8222Z" fill="#C4C4C4" stroke="black"/>
<rect x="31.1841" y="110.059" width="50.0612" height="7.58504" fill="#E4C36C"/>
<rect x="96.3296" y="111.498" width="50.0612" height="7.58504" fill="#A6B1EF"/>
<rect x="304.16" y="111.498" width="50.0612" height="7.58504" fill="#DE7AF8"/>
<rect x="361.806" y="94.8125" width="50.0612" height="7.58504" transform="rotate(-90 361.806 94.8125)" fill="#66DFD3"/>
<rect x="369.392" y="111.498" width="50.0612" height="7.58504" fill="#E19F79"/>
<path d="M53.9487 136.733C53.9487 136.171 53.7495 135.737 53.3511 135.433C52.9585 135.128 52.2466 134.82 51.2153 134.51C50.1841 134.199 49.3638 133.854 48.7544 133.473C47.5884 132.74 47.0054 131.785 47.0054 130.607C47.0054 129.576 47.4243 128.727 48.2622 128.059C49.106 127.391 50.1987 127.057 51.5405 127.057C52.4312 127.057 53.2251 127.221 53.9224 127.549C54.6196 127.877 55.1675 128.346 55.5659 128.955C55.9644 129.559 56.1636 130.229 56.1636 130.968H53.9487C53.9487 130.3 53.7378 129.778 53.3159 129.403C52.8999 129.022 52.3022 128.832 51.5229 128.832C50.7964 128.832 50.231 128.987 49.8267 129.298C49.4282 129.608 49.229 130.042 49.229 130.599C49.229 131.067 49.4458 131.46 49.8794 131.776C50.313 132.087 51.0278 132.392 52.0239 132.69C53.02 132.983 53.8198 133.32 54.4233 133.701C55.0269 134.076 55.4692 134.51 55.7505 135.002C56.0317 135.488 56.1724 136.06 56.1724 136.716C56.1724 137.782 55.7622 138.632 54.9419 139.265C54.1274 139.892 53.02 140.205 51.6196 140.205C50.6938 140.205 49.8413 140.035 49.062 139.695C48.2886 139.35 47.6851 138.875 47.2515 138.271C46.8237 137.668 46.6099 136.965 46.6099 136.162H48.8335C48.8335 136.889 49.0737 137.451 49.5542 137.85C50.0347 138.248 50.7231 138.447 51.6196 138.447C52.3931 138.447 52.9731 138.292 53.3599 137.981C53.7524 137.665 53.9487 137.249 53.9487 136.733ZM63.564 140.029H61.437V129.755L58.2993 130.827V129.025L63.2915 127.188H63.564V140.029Z" fill="black"/>
<path d="M121.828 136.733C121.828 136.171 121.629 135.737 121.23 135.433C120.838 135.128 120.126 134.82 119.095 134.51C118.063 134.199 117.243 133.854 116.634 133.473C115.468 132.74 114.885 131.785 114.885 130.607C114.885 129.576 115.304 128.727 116.142 128.059C116.985 127.391 118.078 127.057 119.42 127.057C120.311 127.057 121.104 127.221 121.802 127.549C122.499 127.877 123.047 128.346 123.445 128.955C123.844 129.559 124.043 130.229 124.043 130.968H121.828C121.828 130.3 121.617 129.778 121.195 129.403C120.779 129.022 120.182 128.832 119.402 128.832C118.676 128.832 118.11 128.987 117.706 129.298C117.308 129.608 117.108 130.042 117.108 130.599C117.108 131.067 117.325 131.46 117.759 131.776C118.192 132.087 118.907 132.392 119.903 132.69C120.899 132.983 121.699 133.32 122.303 133.701C122.906 134.076 123.349 134.51 123.63 135.002C123.911 135.488 124.052 136.06 124.052 136.716C124.052 137.782 123.642 138.632 122.821 139.265C122.007 139.892 120.899 140.205 119.499 140.205C118.573 140.205 117.721 140.035 116.941 139.695C116.168 139.35 115.564 138.875 115.131 138.271C114.703 137.668 114.489 136.965 114.489 136.162H116.713C116.713 136.889 116.953 137.451 117.434 137.85C117.914 138.248 118.603 138.447 119.499 138.447C120.272 138.447 120.853 138.292 121.239 137.981C121.632 137.665 121.828 137.249 121.828 136.733ZM134.265 140.029H125.66V138.562L129.923 133.912C130.538 133.227 130.975 132.655 131.232 132.198C131.496 131.735 131.628 131.272 131.628 130.81C131.628 130.2 131.455 129.708 131.109 129.333C130.77 128.958 130.31 128.771 129.729 128.771C129.038 128.771 128.502 128.981 128.121 129.403C127.74 129.825 127.55 130.402 127.55 131.135H125.414C125.414 130.355 125.59 129.655 125.941 129.034C126.299 128.407 126.806 127.921 127.462 127.575C128.124 127.229 128.886 127.057 129.747 127.057C130.989 127.057 131.968 127.37 132.683 127.997C133.403 128.618 133.764 129.479 133.764 130.581C133.764 131.22 133.582 131.891 133.219 132.594C132.861 133.291 132.272 134.085 131.452 134.976L128.323 138.324H134.265V140.029Z" fill="black"/>
<path d="M329.353 136.733C329.353 136.171 329.153 135.737 328.755 135.433C328.362 135.128 327.65 134.82 326.619 134.51C325.588 134.199 324.768 133.854 324.158 133.473C322.992 132.74 322.409 131.785 322.409 130.607C322.409 129.576 322.828 128.727 323.666 128.059C324.51 127.391 325.603 127.057 326.944 127.057C327.835 127.057 328.629 127.221 329.326 127.549C330.023 127.877 330.571 128.346 330.97 128.955C331.368 129.559 331.567 130.229 331.567 130.968H329.353C329.353 130.3 329.142 129.778 328.72 129.403C328.304 129.022 327.706 128.832 326.927 128.832C326.2 128.832 325.635 128.987 325.23 129.298C324.832 129.608 324.633 130.042 324.633 130.599C324.633 131.067 324.85 131.46 325.283 131.776C325.717 132.087 326.432 132.392 327.428 132.69C328.424 132.983 329.224 133.32 329.827 133.701C330.431 134.076 330.873 134.51 331.154 135.002C331.436 135.488 331.576 136.06 331.576 136.716C331.576 137.782 331.166 138.632 330.346 139.265C329.531 139.892 328.424 140.205 327.023 140.205C326.098 140.205 325.245 140.035 324.466 139.695C323.692 139.35 323.089 138.875 322.655 138.271C322.228 137.668 322.014 136.965 322.014 136.162H324.237C324.237 136.889 324.478 137.451 324.958 137.85C325.438 138.248 326.127 138.447 327.023 138.447C327.797 138.447 328.377 138.292 328.764 137.981C329.156 137.665 329.353 137.249 329.353 136.733ZM335.654 132.655H336.955C337.611 132.649 338.13 132.479 338.511 132.146C338.897 131.812 339.091 131.328 339.091 130.695C339.091 130.086 338.93 129.614 338.607 129.28C338.291 128.94 337.805 128.771 337.148 128.771C336.574 128.771 336.103 128.938 335.733 129.271C335.364 129.6 335.18 130.03 335.18 130.563H333.044C333.044 129.907 333.217 129.31 333.562 128.771C333.914 128.231 334.4 127.812 335.021 127.514C335.648 127.209 336.349 127.057 337.122 127.057C338.399 127.057 339.401 127.379 340.128 128.023C340.86 128.662 341.227 129.553 341.227 130.695C341.227 131.27 341.042 131.812 340.673 132.321C340.31 132.825 339.838 133.206 339.258 133.464C339.961 133.704 340.494 134.082 340.857 134.598C341.227 135.113 341.411 135.729 341.411 136.443C341.411 137.592 341.016 138.506 340.225 139.186C339.439 139.865 338.405 140.205 337.122 140.205C335.892 140.205 334.884 139.877 334.099 139.221C333.313 138.564 332.921 137.691 332.921 136.602H335.057C335.057 137.164 335.244 137.621 335.619 137.973C336 138.324 336.51 138.5 337.148 138.5C337.811 138.5 338.332 138.324 338.713 137.973C339.094 137.621 339.284 137.111 339.284 136.443C339.284 135.77 339.085 135.251 338.687 134.888C338.288 134.524 337.696 134.343 336.911 134.343H335.654V132.655Z" fill="black"/>
<path d="M394.756 136.733C394.756 136.171 394.557 135.737 394.159 135.433C393.766 135.128 393.054 134.82 392.023 134.51C390.992 134.199 390.171 133.854 389.562 133.473C388.396 132.74 387.813 131.785 387.813 130.607C387.813 129.576 388.232 128.727 389.07 128.059C389.914 127.391 391.006 127.057 392.348 127.057C393.239 127.057 394.033 127.221 394.73 127.549C395.427 127.877 395.975 128.346 396.374 128.955C396.772 129.559 396.971 130.229 396.971 130.968H394.756C394.756 130.3 394.545 129.778 394.124 129.403C393.708 129.022 393.11 128.832 392.331 128.832C391.604 128.832 391.039 128.987 390.634 129.298C390.236 129.608 390.037 130.042 390.037 130.599C390.037 131.067 390.253 131.46 390.687 131.776C391.121 132.087 391.835 132.392 392.832 132.69C393.828 132.983 394.627 133.32 395.231 133.701C395.834 134.076 396.277 134.51 396.558 135.002C396.839 135.488 396.98 136.06 396.98 136.716C396.98 137.782 396.57 138.632 395.75 139.265C394.935 139.892 393.828 140.205 392.427 140.205C391.501 140.205 390.649 140.035 389.87 139.695C389.096 139.35 388.493 138.875 388.059 138.271C387.631 137.668 387.417 136.965 387.417 136.162H389.641C389.641 136.889 389.881 137.451 390.362 137.85C390.842 138.248 391.531 138.447 392.427 138.447C393.201 138.447 393.781 138.292 394.167 137.981C394.56 137.665 394.756 137.249 394.756 136.733ZM405.813 135.468H407.404V137.182H405.813V140.029H403.677V137.182H398.149L398.087 135.881L403.607 127.232H405.813V135.468ZM400.329 135.468H403.677V130.124L403.519 130.405L400.329 135.468Z" fill="black"/>
<path d="M341.814 71.7061C341.814 71.1436 341.615 70.71 341.217 70.4053C340.824 70.1006 340.112 69.793 339.081 69.4824C338.05 69.1719 337.229 68.8262 336.62 68.4453C335.454 67.7129 334.871 66.7578 334.871 65.5801C334.871 64.5488 335.29 63.6992 336.128 63.0312C336.972 62.3633 338.064 62.0293 339.406 62.0293C340.297 62.0293 341.091 62.1934 341.788 62.5215C342.485 62.8496 343.033 63.3184 343.432 63.9277C343.83 64.5312 344.029 65.2021 344.029 65.9404H341.814C341.814 65.2725 341.604 64.751 341.182 64.376C340.766 63.9951 340.168 63.8047 339.389 63.8047C338.662 63.8047 338.097 63.96 337.692 64.2705C337.294 64.5811 337.095 65.0146 337.095 65.5713C337.095 66.04 337.312 66.4326 337.745 66.749C338.179 67.0596 338.894 67.3643 339.89 67.6631C340.886 67.9561 341.686 68.293 342.289 68.6738C342.893 69.0488 343.335 69.4824 343.616 69.9746C343.897 70.4609 344.038 71.0322 344.038 71.6885C344.038 72.7549 343.628 73.6045 342.808 74.2373C341.993 74.8643 340.886 75.1777 339.485 75.1777C338.56 75.1777 337.707 75.0078 336.928 74.668C336.154 74.3223 335.551 73.8477 335.117 73.2441C334.689 72.6406 334.476 71.9375 334.476 71.1348H336.699C336.699 71.8613 336.939 72.4238 337.42 72.8223C337.9 73.2207 338.589 73.4199 339.485 73.4199C340.259 73.4199 340.839 73.2646 341.226 72.9541C341.618 72.6377 341.814 72.2217 341.814 71.7061ZM346.218 68.6562L346.912 62.2051H353.785V64.0508H348.688L348.336 67.1094C348.928 66.7695 349.596 66.5996 350.34 66.5996C351.559 66.5996 352.505 66.9893 353.179 67.7686C353.858 68.5479 354.198 69.5967 354.198 70.915C354.198 72.2158 353.823 73.2529 353.073 74.0264C352.323 74.7939 351.295 75.1777 349.988 75.1777C348.816 75.1777 347.844 74.8467 347.07 74.1846C346.303 73.5166 345.887 72.6377 345.822 71.5479H347.888C347.97 72.1689 348.192 72.6465 348.556 72.9805C348.919 73.3086 349.394 73.4727 349.979 73.4727C350.636 73.4727 351.146 73.2383 351.509 72.7695C351.878 72.3008 352.062 71.6621 352.062 70.8535C352.062 70.0742 351.86 69.459 351.456 69.0078C351.052 68.5508 350.495 68.3223 349.786 68.3223C349.399 68.3223 349.071 68.375 348.802 68.4805C348.532 68.5801 348.239 68.7793 347.923 69.0781L346.218 68.6562Z" fill="black"/>
</svg>
