<svg width="377" height="186" viewBox="0 0 377 186" fill="none" xmlns="http://www.w3.org/2000/svg">
<rect x="0.5" y="0.5" width="376" height="184.348" fill="#B6B3B3" stroke="black"/>
<rect x="15.6304" y="15.6289" width="345.739" height="153.457" fill="white" stroke="black"/>
<path d="M241.771 161.708H134.913V134.914H171.793L175.891 148.784H200.478L203.945 134.914H241.771V161.708Z" fill="#C4C4C4" stroke="black"/>
<path d="M134.914 23.9565L241.772 23.9565L241.772 50.75L204.892 50.75L200.794 36.8804L176.207 36.8804L172.74 50.75L134.914 50.75L134.914 23.9565Z" fill="#C4C4C4" stroke="black"/>
<rect x="167.635" y="89.625" width="41.6087" height="6.30435" fill="#00BFAB"/>
<rect x="80.0649" y="92.6719" width="41.6087" height="6.30435" fill="#00BFAB"/>
<rect x="252.805" y="92.6719" width="41.6087" height="6.30435" fill="#00BFAB"/>
<rect x="300.717" y="78.8047" width="41.6087" height="6.30435" transform="rotate(-90 300.717 78.8047)" fill="#00BFAB"/>
<rect x="307.022" y="92.6719" width="41.6087" height="6.30435" fill="#00BFAB"/>
<rect x="15.6304" y="15.6289" width="345.739" height="153.457" fill="#747373" stroke="#464646"/>
<path d="M241.771 161.708H134.913V134.914H171.793L175.891 148.784H200.478L203.945 134.914H241.771V161.708Z" fill="#C4C4C4" stroke="black"/>
<path d="M134.914 23.9565L241.772 23.9565L241.772 50.75L204.892 50.75L200.794 36.8804L176.207 36.8804L172.74 50.75L134.914 50.75L134.914 23.9565Z" fill="#C4C4C4" stroke="black"/>
<rect x="25.9189" y="91.4766" width="41.6087" height="6.30435" fill="#E4C36C"/>
<rect x="80.0649" y="92.6719" width="41.6087" height="6.30435" fill="#A6B1EF"/>
<rect x="252.805" y="92.6719" width="41.6087" height="6.30435" fill="#DE7AF8"/>
<rect x="300.717" y="78.8047" width="41.6087" height="6.30435" transform="rotate(-90 300.717 78.8047)" fill="#66DFD3"/>
<rect x="307.022" y="92.6719" width="41.6087" height="6.30435" fill="white"/>
<path d="M46.189 115.96C46.189 115.397 45.9897 114.964 45.5913 114.659C45.1987 114.354 44.4868 114.047 43.4556 113.736C42.4243 113.426 41.604 113.08 40.9946 112.699C39.8286 111.967 39.2456 111.012 39.2456 109.834C39.2456 108.803 39.6646 107.953 40.5024 107.285C41.3462 106.617 42.439 106.283 43.7808 106.283C44.6714 106.283 45.4653 106.447 46.1626 106.775C46.8599 107.104 47.4077 107.572 47.8062 108.182C48.2046 108.785 48.4038 109.456 48.4038 110.194H46.189C46.189 109.526 45.978 109.005 45.5562 108.63C45.1401 108.249 44.5425 108.059 43.7632 108.059C43.0366 108.059 42.4712 108.214 42.0669 108.524C41.6685 108.835 41.4692 109.269 41.4692 109.825C41.4692 110.294 41.686 110.687 42.1196 111.003C42.5532 111.313 43.2681 111.618 44.2642 111.917C45.2603 112.21 46.0601 112.547 46.6636 112.928C47.2671 113.303 47.7095 113.736 47.9907 114.229C48.272 114.715 48.4126 115.286 48.4126 115.942C48.4126 117.009 48.0024 117.858 47.1821 118.491C46.3677 119.118 45.2603 119.432 43.8599 119.432C42.9341 119.432 42.0815 119.262 41.3022 118.922C40.5288 118.576 39.9253 118.102 39.4917 117.498C39.064 116.895 38.8501 116.191 38.8501 115.389H41.0737C41.0737 116.115 41.314 116.678 41.7944 117.076C42.2749 117.475 42.9634 117.674 43.8599 117.674C44.6333 117.674 45.2134 117.519 45.6001 117.208C45.9927 116.892 46.189 116.476 46.189 115.96ZM55.8042 119.256H53.6772V108.981L50.5396 110.054V108.252L55.5317 106.415H55.8042V119.256Z" fill="white"/>
<path d="M102.607 115.96C102.607 115.397 102.408 114.964 102.009 114.659C101.617 114.354 100.905 114.047 99.8735 113.736C98.8423 113.426 98.022 113.08 97.4126 112.699C96.2466 111.967 95.6636 111.012 95.6636 109.834C95.6636 108.803 96.0825 107.953 96.9204 107.285C97.7642 106.617 98.8569 106.283 100.199 106.283C101.089 106.283 101.883 106.447 102.581 106.775C103.278 107.104 103.826 107.572 104.224 108.182C104.623 108.785 104.822 109.456 104.822 110.194H102.607C102.607 109.526 102.396 109.005 101.974 108.63C101.558 108.249 100.96 108.059 100.181 108.059C99.4546 108.059 98.8892 108.214 98.4849 108.524C98.0864 108.835 97.8872 109.269 97.8872 109.825C97.8872 110.294 98.104 110.687 98.5376 111.003C98.9712 111.313 99.686 111.618 100.682 111.917C101.678 112.21 102.478 112.547 103.082 112.928C103.685 113.303 104.127 113.736 104.409 114.229C104.69 114.715 104.831 115.286 104.831 115.942C104.831 117.009 104.42 117.858 103.6 118.491C102.786 119.118 101.678 119.432 100.278 119.432C99.3521 119.432 98.4995 119.262 97.7202 118.922C96.9468 118.576 96.3433 118.102 95.9097 117.498C95.4819 116.895 95.2681 116.191 95.2681 115.389H97.4917C97.4917 116.115 97.7319 116.678 98.2124 117.076C98.6929 117.475 99.3813 117.674 100.278 117.674C101.051 117.674 101.631 117.519 102.018 117.208C102.411 116.892 102.607 116.476 102.607 115.96ZM115.043 119.256H106.439V117.788L110.702 113.139C111.317 112.453 111.753 111.882 112.011 111.425C112.275 110.962 112.407 110.499 112.407 110.036C112.407 109.427 112.234 108.935 111.888 108.56C111.548 108.185 111.088 107.997 110.508 107.997C109.817 107.997 109.281 108.208 108.9 108.63C108.519 109.052 108.329 109.629 108.329 110.361H106.193C106.193 109.582 106.369 108.882 106.72 108.261C107.078 107.634 107.584 107.147 108.241 106.802C108.903 106.456 109.665 106.283 110.526 106.283C111.768 106.283 112.747 106.597 113.461 107.224C114.182 107.845 114.542 108.706 114.542 109.808C114.542 110.446 114.361 111.117 113.998 111.82C113.64 112.518 113.051 113.312 112.231 114.202L109.102 117.551H115.043V119.256Z" fill="white"/>
<path d="M274.989 115.704C274.989 115.142 274.79 114.708 274.392 114.403C273.999 114.099 273.287 113.791 272.256 113.48C271.225 113.17 270.404 112.824 269.795 112.443C268.629 111.711 268.046 110.756 268.046 109.578C268.046 108.547 268.465 107.697 269.303 107.029C270.146 106.361 271.239 106.027 272.581 106.027C273.472 106.027 274.266 106.191 274.963 106.52C275.66 106.848 276.208 107.316 276.606 107.926C277.005 108.529 277.204 109.2 277.204 109.938H274.989C274.989 109.271 274.778 108.749 274.356 108.374C273.94 107.993 273.343 107.803 272.563 107.803C271.837 107.803 271.271 107.958 270.867 108.269C270.469 108.579 270.27 109.013 270.27 109.569C270.27 110.038 270.486 110.431 270.92 110.747C271.354 111.058 272.068 111.362 273.064 111.661C274.061 111.954 274.86 112.291 275.464 112.672C276.067 113.047 276.51 113.48 276.791 113.973C277.072 114.459 277.213 115.03 277.213 115.687C277.213 116.753 276.803 117.603 275.982 118.235C275.168 118.862 274.061 119.176 272.66 119.176C271.734 119.176 270.882 119.006 270.103 118.666C269.329 118.32 268.726 117.846 268.292 117.242C267.864 116.639 267.65 115.936 267.65 115.133H269.874C269.874 115.859 270.114 116.422 270.595 116.82C271.075 117.219 271.764 117.418 272.66 117.418C273.434 117.418 274.014 117.263 274.4 116.952C274.793 116.636 274.989 116.22 274.989 115.704ZM281.291 111.626H282.592C283.248 111.62 283.767 111.45 284.147 111.116C284.534 110.782 284.728 110.299 284.728 109.666C284.728 109.057 284.566 108.585 284.244 108.251C283.928 107.911 283.441 107.741 282.785 107.741C282.211 107.741 281.739 107.908 281.37 108.242C281.001 108.57 280.816 109.001 280.816 109.534H278.681C278.681 108.878 278.854 108.28 279.199 107.741C279.551 107.202 280.037 106.783 280.658 106.484C281.285 106.18 281.985 106.027 282.759 106.027C284.036 106.027 285.038 106.35 285.765 106.994C286.497 107.633 286.863 108.523 286.863 109.666C286.863 110.24 286.679 110.782 286.31 111.292C285.946 111.796 285.475 112.177 284.895 112.435C285.598 112.675 286.131 113.053 286.494 113.568C286.863 114.084 287.048 114.699 287.048 115.414C287.048 116.562 286.652 117.477 285.861 118.156C285.076 118.836 284.042 119.176 282.759 119.176C281.528 119.176 280.521 118.848 279.735 118.191C278.95 117.535 278.558 116.662 278.558 115.572H280.693C280.693 116.135 280.881 116.592 281.256 116.943C281.637 117.295 282.146 117.471 282.785 117.471C283.447 117.471 283.969 117.295 284.35 116.943C284.73 116.592 284.921 116.082 284.921 115.414C284.921 114.74 284.722 114.222 284.323 113.858C283.925 113.495 283.333 113.313 282.548 113.313H281.291V111.626Z" fill="white"/>
<path d="M329.453 115.96C329.453 115.397 329.254 114.964 328.855 114.659C328.463 114.354 327.751 114.047 326.72 113.736C325.688 113.426 324.868 113.08 324.259 112.699C323.093 111.967 322.51 111.012 322.51 109.834C322.51 108.803 322.929 107.953 323.767 107.285C324.61 106.617 325.703 106.283 327.045 106.283C327.936 106.283 328.729 106.447 329.427 106.775C330.124 107.104 330.672 107.572 331.07 108.182C331.469 108.785 331.668 109.456 331.668 110.194H329.453C329.453 109.526 329.242 109.005 328.82 108.63C328.404 108.249 327.807 108.059 327.027 108.059C326.301 108.059 325.735 108.214 325.331 108.524C324.933 108.835 324.733 109.269 324.733 109.825C324.733 110.294 324.95 110.687 325.384 111.003C325.817 111.313 326.532 111.618 327.528 111.917C328.524 112.21 329.324 112.547 329.928 112.928C330.531 113.303 330.974 113.736 331.255 114.229C331.536 114.715 331.677 115.286 331.677 115.942C331.677 117.009 331.267 117.858 330.446 118.491C329.632 119.118 328.524 119.432 327.124 119.432C326.198 119.432 325.346 119.262 324.566 118.922C323.793 118.576 323.189 118.102 322.756 117.498C322.328 116.895 322.114 116.191 322.114 115.389H324.338C324.338 116.115 324.578 116.678 325.059 117.076C325.539 117.475 326.228 117.674 327.124 117.674C327.897 117.674 328.478 117.519 328.864 117.208C329.257 116.892 329.453 116.476 329.453 115.96ZM340.51 114.694H342.101V116.408H340.51V119.256H338.374V116.408H332.846L332.784 115.107L338.304 106.459H340.51V114.694ZM335.025 114.694H338.374V109.351L338.216 109.632L335.025 114.694Z" fill="white"/>
<path d="M285.45 61.9131C285.45 61.3506 285.251 60.917 284.853 60.6123C284.46 60.3076 283.748 60 282.717 59.6895C281.686 59.3789 280.865 59.0332 280.256 58.6523C279.09 57.9199 278.507 56.9648 278.507 55.7871C278.507 54.7559 278.926 53.9062 279.764 53.2383C280.607 52.5703 281.7 52.2363 283.042 52.2363C283.933 52.2363 284.727 52.4004 285.424 52.7285C286.121 53.0566 286.669 53.5254 287.067 54.1348C287.466 54.7383 287.665 55.4092 287.665 56.1475H285.45C285.45 55.4795 285.239 54.958 284.817 54.583C284.401 54.2021 283.804 54.0117 283.024 54.0117C282.298 54.0117 281.732 54.167 281.328 54.4775C280.93 54.7881 280.73 55.2217 280.73 55.7783C280.73 56.2471 280.947 56.6396 281.381 56.9561C281.814 57.2666 282.529 57.5713 283.525 57.8701C284.521 58.1631 285.321 58.5 285.925 58.8809C286.528 59.2559 286.971 59.6895 287.252 60.1816C287.533 60.668 287.674 61.2393 287.674 61.8955C287.674 62.9619 287.264 63.8115 286.443 64.4443C285.629 65.0713 284.521 65.3848 283.121 65.3848C282.195 65.3848 281.343 65.2148 280.563 64.875C279.79 64.5293 279.187 64.0547 278.753 63.4512C278.325 62.8477 278.111 62.1445 278.111 61.3418H280.335C280.335 62.0684 280.575 62.6309 281.056 63.0293C281.536 63.4277 282.225 63.627 283.121 63.627C283.895 63.627 284.475 63.4717 284.861 63.1611C285.254 62.8447 285.45 62.4287 285.45 61.9131ZM289.854 58.8633L290.548 52.4121H297.421V54.2578H292.323L291.972 57.3164C292.563 56.9766 293.231 56.8066 293.976 56.8066C295.194 56.8066 296.141 57.1963 296.814 57.9756C297.494 58.7549 297.834 59.8037 297.834 61.1221C297.834 62.4229 297.459 63.46 296.709 64.2334C295.959 65.001 294.931 65.3848 293.624 65.3848C292.452 65.3848 291.479 65.0537 290.706 64.3916C289.938 63.7236 289.522 62.8447 289.458 61.7549H291.523C291.605 62.376 291.828 62.8535 292.191 63.1875C292.555 63.5156 293.029 63.6797 293.615 63.6797C294.271 63.6797 294.781 63.4453 295.145 62.9766C295.514 62.5078 295.698 61.8691 295.698 61.0605C295.698 60.2812 295.496 59.666 295.092 59.2148C294.688 58.7578 294.131 58.5293 293.422 58.5293C293.035 58.5293 292.707 58.582 292.438 58.6875C292.168 58.7871 291.875 58.9863 291.559 59.2852L289.854 58.8633Z" fill="white"/>
</svg>
