<svg width="764" height="242" viewBox="0 0 764 242" fill="none" xmlns="http://www.w3.org/2000/svg">
<path d="M31.957 53.8164C31.957 51.5664 31.1602 49.832 29.5664 48.6133C27.9961 47.3945 25.1484 46.1641 21.0234 44.9219C16.8984 43.6797 13.6172 42.2969 11.1797 40.7734C6.51562 37.8438 4.18359 34.0234 4.18359 29.3125C4.18359 25.1875 5.85938 21.7891 9.21094 19.1172C12.5859 16.4453 16.957 15.1094 22.3242 15.1094C25.8867 15.1094 29.0625 15.7656 31.8516 17.0781C34.6406 18.3906 36.832 20.2656 38.4258 22.7031C40.0195 25.1172 40.8164 27.8008 40.8164 30.7539H31.957C31.957 28.082 31.1133 25.9961 29.4258 24.4961C27.7617 22.9727 25.3711 22.2109 22.2539 22.2109C19.3477 22.2109 17.0859 22.832 15.4688 24.0742C13.875 25.3164 13.0781 27.0508 13.0781 29.2773C13.0781 31.1523 13.9453 32.7227 15.6797 33.9883C17.4141 35.2305 20.2734 36.4492 24.2578 37.6445C28.2422 38.8164 31.4414 40.1641 33.8555 41.6875C36.2695 43.1875 38.0391 44.9219 39.1641 46.8906C40.2891 48.8359 40.8516 51.1211 40.8516 53.7461C40.8516 58.0117 39.2109 61.4102 35.9297 63.9414C32.6719 66.4492 28.2422 67.7031 22.6406 67.7031C18.9375 67.7031 15.5273 67.0234 12.4102 65.6641C9.31641 64.2812 6.90234 62.3828 5.16797 59.9688C3.45703 57.5547 2.60156 54.7422 2.60156 51.5312H11.4961C11.4961 54.4375 12.457 56.6875 14.3789 58.2812C16.3008 59.875 19.0547 60.6719 22.6406 60.6719C25.7344 60.6719 28.0547 60.0508 29.6016 58.8086C31.1719 57.543 31.957 55.8789 31.957 53.8164ZM46.2305 47.6289C46.2305 43.9023 46.9688 40.5508 48.4453 37.5742C49.9219 34.5742 51.9961 32.2773 54.668 30.6836C57.3398 29.0664 60.4102 28.2578 63.8789 28.2578C69.0117 28.2578 73.1719 29.9102 76.3594 33.2148C79.5703 36.5195 81.3047 40.9023 81.5625 46.3633L81.5977 48.3672C81.5977 52.1172 80.8711 55.4688 79.418 58.4219C77.9883 61.375 75.9258 63.6602 73.2305 65.2773C70.5586 66.8945 67.4648 67.7031 63.9492 67.7031C58.582 67.7031 54.2812 65.9219 51.0469 62.3594C47.8359 58.7734 46.2305 54.0039 46.2305 48.0508V47.6289ZM54.7734 48.3672C54.7734 52.2812 55.582 55.3516 57.1992 57.5781C58.8164 59.7812 61.0664 60.8828 63.9492 60.8828C66.832 60.8828 69.0703 59.7578 70.6641 57.5078C72.2812 55.2578 73.0898 51.9648 73.0898 47.6289C73.0898 43.7852 72.2578 40.7383 70.5938 38.4883C68.9531 36.2383 66.7148 35.1133 63.8789 35.1133C61.0898 35.1133 58.875 36.2266 57.2344 38.4531C55.5938 40.6562 54.7734 43.9609 54.7734 48.3672ZM108.738 36.7656C107.613 36.5781 106.453 36.4844 105.258 36.4844C101.344 36.4844 98.707 37.9844 97.3477 40.9844V67H88.8047V28.9609H96.9609L97.1719 33.2148C99.2344 29.9102 102.094 28.2578 105.75 28.2578C106.969 28.2578 107.977 28.4219 108.773 28.75L108.738 36.7656ZM134.051 36.7656C132.926 36.5781 131.766 36.4844 130.57 36.4844C126.656 36.4844 124.02 37.9844 122.66 40.9844V67H114.117V28.9609H122.273L122.484 33.2148C124.547 29.9102 127.406 28.2578 131.062 28.2578C132.281 28.2578 133.289 28.4219 134.086 28.75L134.051 36.7656ZM153.387 54.7656L161.121 28.9609H170.227L155.109 72.7656C152.789 79.1641 148.852 82.3633 143.297 82.3633C142.055 82.3633 140.684 82.1523 139.184 81.7305V75.1211L140.801 75.2266C142.957 75.2266 144.574 74.8281 145.652 74.0312C146.754 73.2578 147.621 71.9453 148.254 70.0938L149.484 66.8242L136.125 28.9609H145.336L153.387 54.7656ZM196.102 67V35.2891H190.301V28.9609H196.102V25.4805C196.102 21.2617 197.273 18.0039 199.617 15.707C201.961 13.4102 205.242 12.2617 209.461 12.2617C210.961 12.2617 212.555 12.4727 214.242 12.8945L214.031 19.5742C213.094 19.3867 212.004 19.293 210.762 19.293C206.684 19.293 204.645 21.3906 204.645 25.5859V28.9609H212.379V35.2891H204.645V67H196.102ZM217.02 47.6289C217.02 43.9023 217.758 40.5508 219.234 37.5742C220.711 34.5742 222.785 32.2773 225.457 30.6836C228.129 29.0664 231.199 28.2578 234.668 28.2578C239.801 28.2578 243.961 29.9102 247.148 33.2148C250.359 36.5195 252.094 40.9023 252.352 46.3633L252.387 48.3672C252.387 52.1172 251.66 55.4688 250.207 58.4219C248.777 61.375 246.715 63.6602 244.02 65.2773C241.348 66.8945 238.254 67.7031 234.738 67.7031C229.371 67.7031 225.07 65.9219 221.836 62.3594C218.625 58.7734 217.02 54.0039 217.02 48.0508V47.6289ZM225.562 48.3672C225.562 52.2812 226.371 55.3516 227.988 57.5781C229.605 59.7812 231.855 60.8828 234.738 60.8828C237.621 60.8828 239.859 59.7578 241.453 57.5078C243.07 55.2578 243.879 51.9648 243.879 47.6289C243.879 43.7852 243.047 40.7383 241.383 38.4883C239.742 36.2383 237.504 35.1133 234.668 35.1133C231.879 35.1133 229.664 36.2266 228.023 38.4531C226.383 40.6562 225.562 43.9609 225.562 48.3672ZM279.527 36.7656C278.402 36.5781 277.242 36.4844 276.047 36.4844C272.133 36.4844 269.496 37.9844 268.137 40.9844V67H259.594V28.9609H267.75L267.961 33.2148C270.023 29.9102 272.883 28.2578 276.539 28.2578C277.758 28.2578 278.766 28.4219 279.562 28.75L279.527 36.7656ZM311.941 67H303.398V28.9609H311.941V67ZM302.871 19.082C302.871 17.7695 303.281 16.6797 304.102 15.8125C304.945 14.9453 306.141 14.5117 307.688 14.5117C309.234 14.5117 310.43 14.9453 311.273 15.8125C312.117 16.6797 312.539 17.7695 312.539 19.082C312.539 20.3711 312.117 21.4492 311.273 22.3164C310.43 23.1602 309.234 23.582 307.688 23.582C306.141 23.582 304.945 23.1602 304.102 22.3164C303.281 21.4492 302.871 20.3711 302.871 19.082ZM329.203 28.9609L329.449 33.3555C332.262 29.957 335.953 28.2578 340.523 28.2578C348.445 28.2578 352.477 32.793 352.617 41.8633V67H344.074V42.3555C344.074 39.9414 343.547 38.1602 342.492 37.0117C341.461 35.8398 339.762 35.2539 337.395 35.2539C333.949 35.2539 331.383 36.8125 329.695 39.9297V67H321.152V28.9609H329.203ZM376.98 60.8828C379.113 60.8828 380.883 60.2617 382.289 59.0195C383.695 57.7773 384.445 56.2422 384.539 54.4141H392.59C392.496 56.7812 391.758 58.9961 390.375 61.0586C388.992 63.0977 387.117 64.7148 384.75 65.9102C382.383 67.1055 379.828 67.7031 377.086 67.7031C371.766 67.7031 367.547 65.9805 364.43 62.5352C361.312 59.0898 359.754 54.332 359.754 48.2617V47.3828C359.754 41.5938 361.301 36.9648 364.395 33.4961C367.488 30.0039 371.707 28.2578 377.051 28.2578C381.574 28.2578 385.254 29.582 388.09 32.2305C390.949 34.8555 392.449 38.3125 392.59 42.6016H384.539C384.445 40.4219 383.695 38.6289 382.289 37.2227C380.906 35.8164 379.137 35.1133 376.98 35.1133C374.215 35.1133 372.082 36.1211 370.582 38.1367C369.082 40.1289 368.32 43.1641 368.297 47.2422V48.6133C368.297 52.7383 369.035 55.8203 370.512 57.8594C372.012 59.875 374.168 60.8828 376.98 60.8828ZM397.441 47.6289C397.441 43.9023 398.18 40.5508 399.656 37.5742C401.133 34.5742 403.207 32.2773 405.879 30.6836C408.551 29.0664 411.621 28.2578 415.09 28.2578C420.223 28.2578 424.383 29.9102 427.57 33.2148C430.781 36.5195 432.516 40.9023 432.773 46.3633L432.809 48.3672C432.809 52.1172 432.082 55.4688 430.629 58.4219C429.199 61.375 427.137 63.6602 424.441 65.2773C421.77 66.8945 418.676 67.7031 415.16 67.7031C409.793 67.7031 405.492 65.9219 402.258 62.3594C399.047 58.7734 397.441 54.0039 397.441 48.0508V47.6289ZM405.984 48.3672C405.984 52.2812 406.793 55.3516 408.41 57.5781C410.027 59.7812 412.277 60.8828 415.16 60.8828C418.043 60.8828 420.281 59.7578 421.875 57.5078C423.492 55.2578 424.301 51.9648 424.301 47.6289C424.301 43.7852 423.469 40.7383 421.805 38.4883C420.164 36.2383 417.926 35.1133 415.09 35.1133C412.301 35.1133 410.086 36.2266 408.445 38.4531C406.805 40.6562 405.984 43.9609 405.984 48.3672ZM447.961 28.9609L448.207 33.3555C451.02 29.957 454.711 28.2578 459.281 28.2578C467.203 28.2578 471.234 32.793 471.375 41.8633V67H462.832V42.3555C462.832 39.9414 462.305 38.1602 461.25 37.0117C460.219 35.8398 458.52 35.2539 456.152 35.2539C452.707 35.2539 450.141 36.8125 448.453 39.9297V67H439.91V28.9609H447.961ZM493.523 56.1719L501.574 28.9609H510.398L497.215 67H489.797L476.508 28.9609H485.367L493.523 56.1719ZM532.02 67.7031C526.605 67.7031 522.211 66.0039 518.836 62.6055C515.484 59.1836 513.809 54.6367 513.809 48.9648V47.9102C513.809 44.1133 514.535 40.7266 515.988 37.75C517.465 34.75 519.527 32.418 522.176 30.7539C524.824 29.0898 527.777 28.2578 531.035 28.2578C536.215 28.2578 540.211 29.9102 543.023 33.2148C545.859 36.5195 547.277 41.1953 547.277 47.2422V50.6875H522.422C522.68 53.8281 523.723 56.3125 525.551 58.1406C527.402 59.9688 529.723 60.8828 532.512 60.8828C536.426 60.8828 539.613 59.3008 542.074 56.1367L546.68 60.5312C545.156 62.8047 543.117 64.5742 540.562 65.8398C538.031 67.082 535.184 67.7031 532.02 67.7031ZM531 35.1133C528.656 35.1133 526.758 35.9336 525.305 37.5742C523.875 39.2148 522.961 41.5 522.562 44.4297H538.84V43.7969C538.652 40.9375 537.891 38.7812 536.555 37.3281C535.219 35.8516 533.367 35.1133 531 35.1133ZM561.867 28.9609L562.113 33.3555C564.926 29.957 568.617 28.2578 573.188 28.2578C581.109 28.2578 585.141 32.793 585.281 41.8633V67H576.738V42.3555C576.738 39.9414 576.211 38.1602 575.156 37.0117C574.125 35.8398 572.426 35.2539 570.059 35.2539C566.613 35.2539 564.047 36.8125 562.359 39.9297V67H553.816V28.9609H561.867ZM603.105 67H594.562V28.9609H603.105V67ZM594.035 19.082C594.035 17.7695 594.445 16.6797 595.266 15.8125C596.109 14.9453 597.305 14.5117 598.852 14.5117C600.398 14.5117 601.594 14.9453 602.438 15.8125C603.281 16.6797 603.703 17.7695 603.703 19.082C603.703 20.3711 603.281 21.4492 602.438 22.3164C601.594 23.1602 600.398 23.582 598.852 23.582C597.305 23.582 596.109 23.1602 595.266 22.3164C594.445 21.4492 594.035 20.3711 594.035 19.082ZM629.191 67.7031C623.777 67.7031 619.383 66.0039 616.008 62.6055C612.656 59.1836 610.98 54.6367 610.98 48.9648V47.9102C610.98 44.1133 611.707 40.7266 613.16 37.75C614.637 34.75 616.699 32.418 619.348 30.7539C621.996 29.0898 624.949 28.2578 628.207 28.2578C633.387 28.2578 637.383 29.9102 640.195 33.2148C643.031 36.5195 644.449 41.1953 644.449 47.2422V50.6875H619.594C619.852 53.8281 620.895 56.3125 622.723 58.1406C624.574 59.9688 626.895 60.8828 629.684 60.8828C633.598 60.8828 636.785 59.3008 639.246 56.1367L643.852 60.5312C642.328 62.8047 640.289 64.5742 637.734 65.8398C635.203 67.082 632.355 67.7031 629.191 67.7031ZM628.172 35.1133C625.828 35.1133 623.93 35.9336 622.477 37.5742C621.047 39.2148 620.133 41.5 619.734 44.4297H636.012V43.7969C635.824 40.9375 635.062 38.7812 633.727 37.3281C632.391 35.8516 630.539 35.1133 628.172 35.1133ZM659.039 28.9609L659.285 33.3555C662.098 29.957 665.789 28.2578 670.359 28.2578C678.281 28.2578 682.312 32.793 682.453 41.8633V67H673.91V42.3555C673.91 39.9414 673.383 38.1602 672.328 37.0117C671.297 35.8398 669.598 35.2539 667.23 35.2539C663.785 35.2539 661.219 36.8125 659.531 39.9297V67H650.988V28.9609H659.039ZM706.816 60.8828C708.949 60.8828 710.719 60.2617 712.125 59.0195C713.531 57.7773 714.281 56.2422 714.375 54.4141H722.426C722.332 56.7812 721.594 58.9961 720.211 61.0586C718.828 63.0977 716.953 64.7148 714.586 65.9102C712.219 67.1055 709.664 67.7031 706.922 67.7031C701.602 67.7031 697.383 65.9805 694.266 62.5352C691.148 59.0898 689.59 54.332 689.59 48.2617V47.3828C689.59 41.5938 691.137 36.9648 694.23 33.4961C697.324 30.0039 701.543 28.2578 706.887 28.2578C711.41 28.2578 715.09 29.582 717.926 32.2305C720.785 34.8555 722.285 38.3125 722.426 42.6016H714.375C714.281 40.4219 713.531 38.6289 712.125 37.2227C710.742 35.8164 708.973 35.1133 706.816 35.1133C704.051 35.1133 701.918 36.1211 700.418 38.1367C698.918 40.1289 698.156 43.1641 698.133 47.2422V48.6133C698.133 52.7383 698.871 55.8203 700.348 57.8594C701.848 59.875 704.004 60.8828 706.816 60.8828ZM745.629 67.7031C740.215 67.7031 735.82 66.0039 732.445 62.6055C729.094 59.1836 727.418 54.6367 727.418 48.9648V47.9102C727.418 44.1133 728.145 40.7266 729.598 37.75C731.074 34.75 733.137 32.418 735.785 30.7539C738.434 29.0898 741.387 28.2578 744.645 28.2578C749.824 28.2578 753.82 29.9102 756.633 33.2148C759.469 36.5195 760.887 41.1953 760.887 47.2422V50.6875H736.031C736.289 53.8281 737.332 56.3125 739.16 58.1406C741.012 59.9688 743.332 60.8828 746.121 60.8828C750.035 60.8828 753.223 59.3008 755.684 56.1367L760.289 60.5312C758.766 62.8047 756.727 64.5742 754.172 65.8398C751.641 67.082 748.793 67.7031 745.629 67.7031ZM744.609 35.1133C742.266 35.1133 740.367 35.9336 738.914 37.5742C737.484 39.2148 736.57 41.5 736.172 44.4297H752.449V43.7969C752.262 40.9375 751.5 38.7812 750.164 37.3281C748.828 35.8516 746.977 35.1133 744.609 35.1133Z" fill="white"/>
<path d="M64.9375 156.047L72.7891 139.875H79.3516L67.9141 161.438V174H61.9609V161.438L50.5 139.875H57.0859L64.9375 156.047ZM79.8906 161.086C79.8906 158.602 80.3828 156.367 81.3672 154.383C82.3516 152.383 83.7344 150.852 85.5156 149.789C87.2969 148.711 89.3438 148.172 91.6562 148.172C95.0781 148.172 97.8516 149.273 99.9766 151.477C102.117 153.68 103.273 156.602 103.445 160.242L103.469 161.578C103.469 164.078 102.984 166.312 102.016 168.281C101.062 170.25 99.6875 171.773 97.8906 172.852C96.1094 173.93 94.0469 174.469 91.7031 174.469C88.125 174.469 85.2578 173.281 83.1016 170.906C80.9609 168.516 79.8906 165.336 79.8906 161.367V161.086ZM85.5859 161.578C85.5859 164.188 86.125 166.234 87.2031 167.719C88.2812 169.188 89.7812 169.922 91.7031 169.922C93.625 169.922 95.1172 169.172 96.1797 167.672C97.2578 166.172 97.7969 163.977 97.7969 161.086C97.7969 158.523 97.2422 156.492 96.1328 154.992C95.0391 153.492 93.5469 152.742 91.6562 152.742C89.7969 152.742 88.3203 153.484 87.2266 154.969C86.1328 156.438 85.5859 158.641 85.5859 161.578ZM123.648 171.516C121.977 173.484 119.602 174.469 116.523 174.469C113.773 174.469 111.688 173.664 110.266 172.055C108.859 170.445 108.156 168.117 108.156 165.07V148.641H113.852V165C113.852 168.219 115.188 169.828 117.859 169.828C120.625 169.828 122.492 168.836 123.461 166.852V148.641H129.156V174H123.789L123.648 171.516ZM161.125 167.109C161.125 166.094 160.703 165.32 159.859 164.789C159.031 164.258 157.648 163.789 155.711 163.383C153.773 162.977 152.156 162.461 150.859 161.836C148.016 160.461 146.594 158.469 146.594 155.859C146.594 153.672 147.516 151.844 149.359 150.375C151.203 148.906 153.547 148.172 156.391 148.172C159.422 148.172 161.867 148.922 163.727 150.422C165.602 151.922 166.539 153.867 166.539 156.258H160.844C160.844 155.164 160.438 154.258 159.625 153.539C158.812 152.805 157.734 152.438 156.391 152.438C155.141 152.438 154.117 152.727 153.32 153.305C152.539 153.883 152.148 154.656 152.148 155.625C152.148 156.5 152.516 157.18 153.25 157.664C153.984 158.148 155.469 158.641 157.703 159.141C159.938 159.625 161.688 160.211 162.953 160.898C164.234 161.57 165.18 162.383 165.789 163.336C166.414 164.289 166.727 165.445 166.727 166.805C166.727 169.086 165.781 170.938 163.891 172.359C162 173.766 159.523 174.469 156.461 174.469C154.383 174.469 152.531 174.094 150.906 173.344C149.281 172.594 148.016 171.562 147.109 170.25C146.203 168.938 145.75 167.523 145.75 166.008H151.281C151.359 167.352 151.867 168.391 152.805 169.125C153.742 169.844 154.984 170.203 156.531 170.203C158.031 170.203 159.172 169.922 159.953 169.359C160.734 168.781 161.125 168.031 161.125 167.109ZM182.125 169.922C183.547 169.922 184.727 169.508 185.664 168.68C186.602 167.852 187.102 166.828 187.164 165.609H192.531C192.469 167.188 191.977 168.664 191.055 170.039C190.133 171.398 188.883 172.477 187.305 173.273C185.727 174.07 184.023 174.469 182.195 174.469C178.648 174.469 175.836 173.32 173.758 171.023C171.68 168.727 170.641 165.555 170.641 161.508V160.922C170.641 157.062 171.672 153.977 173.734 151.664C175.797 149.336 178.609 148.172 182.172 148.172C185.188 148.172 187.641 149.055 189.531 150.82C191.438 152.57 192.438 154.875 192.531 157.734H187.164C187.102 156.281 186.602 155.086 185.664 154.148C184.742 153.211 183.562 152.742 182.125 152.742C180.281 152.742 178.859 153.414 177.859 154.758C176.859 156.086 176.352 158.109 176.336 160.828V161.742C176.336 164.492 176.828 166.547 177.812 167.906C178.812 169.25 180.25 169.922 182.125 169.922ZM210.109 153.844C209.359 153.719 208.586 153.656 207.789 153.656C205.18 153.656 203.422 154.656 202.516 156.656V174H196.82V148.641H202.258L202.398 151.477C203.773 149.273 205.68 148.172 208.117 148.172C208.93 148.172 209.602 148.281 210.133 148.5L210.109 153.844ZM224.406 174.469C220.797 174.469 217.867 173.336 215.617 171.07C213.383 168.789 212.266 165.758 212.266 161.977V161.273C212.266 158.742 212.75 156.484 213.719 154.5C214.703 152.5 216.078 150.945 217.844 149.836C219.609 148.727 221.578 148.172 223.75 148.172C227.203 148.172 229.867 149.273 231.742 151.477C233.633 153.68 234.578 156.797 234.578 160.828V163.125H218.008C218.18 165.219 218.875 166.875 220.094 168.094C221.328 169.312 222.875 169.922 224.734 169.922C227.344 169.922 229.469 168.867 231.109 166.758L234.18 169.688C233.164 171.203 231.805 172.383 230.102 173.227C228.414 174.055 226.516 174.469 224.406 174.469ZM223.727 152.742C222.164 152.742 220.898 153.289 219.93 154.383C218.977 155.477 218.367 157 218.102 158.953H228.953V158.531C228.828 156.625 228.32 155.188 227.43 154.219C226.539 153.234 225.305 152.742 223.727 152.742ZM250.188 174.469C246.578 174.469 243.648 173.336 241.398 171.07C239.164 168.789 238.047 165.758 238.047 161.977V161.273C238.047 158.742 238.531 156.484 239.5 154.5C240.484 152.5 241.859 150.945 243.625 149.836C245.391 148.727 247.359 148.172 249.531 148.172C252.984 148.172 255.648 149.273 257.523 151.477C259.414 153.68 260.359 156.797 260.359 160.828V163.125H243.789C243.961 165.219 244.656 166.875 245.875 168.094C247.109 169.312 248.656 169.922 250.516 169.922C253.125 169.922 255.25 168.867 256.891 166.758L259.961 169.688C258.945 171.203 257.586 172.383 255.883 173.227C254.195 174.055 252.297 174.469 250.188 174.469ZM249.508 152.742C247.945 152.742 246.68 153.289 245.711 154.383C244.758 155.477 244.148 157 243.883 158.953H254.734V158.531C254.609 156.625 254.102 155.188 253.211 154.219C252.32 153.234 251.086 152.742 249.508 152.742ZM270.086 148.641L270.25 151.57C272.125 149.305 274.586 148.172 277.633 148.172C282.914 148.172 285.602 151.195 285.695 157.242V174H280V157.57C280 155.961 279.648 154.773 278.945 154.008C278.258 153.227 277.125 152.836 275.547 152.836C273.25 152.836 271.539 153.875 270.414 155.953V174H264.719V148.641H270.086ZM317.688 167.109C317.688 166.094 317.266 165.32 316.422 164.789C315.594 164.258 314.211 163.789 312.273 163.383C310.336 162.977 308.719 162.461 307.422 161.836C304.578 160.461 303.156 158.469 303.156 155.859C303.156 153.672 304.078 151.844 305.922 150.375C307.766 148.906 310.109 148.172 312.953 148.172C315.984 148.172 318.43 148.922 320.289 150.422C322.164 151.922 323.102 153.867 323.102 156.258H317.406C317.406 155.164 317 154.258 316.188 153.539C315.375 152.805 314.297 152.438 312.953 152.438C311.703 152.438 310.68 152.727 309.883 153.305C309.102 153.883 308.711 154.656 308.711 155.625C308.711 156.5 309.078 157.18 309.812 157.664C310.547 158.148 312.031 158.641 314.266 159.141C316.5 159.625 318.25 160.211 319.516 160.898C320.797 161.57 321.742 162.383 322.352 163.336C322.977 164.289 323.289 165.445 323.289 166.805C323.289 169.086 322.344 170.938 320.453 172.359C318.562 173.766 316.086 174.469 313.023 174.469C310.945 174.469 309.094 174.094 307.469 173.344C305.844 172.594 304.578 171.562 303.672 170.25C302.766 168.938 302.312 167.523 302.312 166.008H307.844C307.922 167.352 308.43 168.391 309.367 169.125C310.305 169.844 311.547 170.203 313.094 170.203C314.594 170.203 315.734 169.922 316.516 169.359C317.297 168.781 317.688 168.031 317.688 167.109ZM334.328 174H328.633V148.641H334.328V174ZM328.281 142.055C328.281 141.18 328.555 140.453 329.102 139.875C329.664 139.297 330.461 139.008 331.492 139.008C332.523 139.008 333.32 139.297 333.883 139.875C334.445 140.453 334.727 141.18 334.727 142.055C334.727 142.914 334.445 143.633 333.883 144.211C333.32 144.773 332.523 145.055 331.492 145.055C330.461 145.055 329.664 144.773 329.102 144.211C328.555 143.633 328.281 142.914 328.281 142.055ZM346.633 169.453H360.133V174H339.555V170.273L352.422 153.234H339.789V148.641H359.641V152.25L346.633 169.453ZM375.484 174.469C371.875 174.469 368.945 173.336 366.695 171.07C364.461 168.789 363.344 165.758 363.344 161.977V161.273C363.344 158.742 363.828 156.484 364.797 154.5C365.781 152.5 367.156 150.945 368.922 149.836C370.688 148.727 372.656 148.172 374.828 148.172C378.281 148.172 380.945 149.273 382.82 151.477C384.711 153.68 385.656 156.797 385.656 160.828V163.125H369.086C369.258 165.219 369.953 166.875 371.172 168.094C372.406 169.312 373.953 169.922 375.812 169.922C378.422 169.922 380.547 168.867 382.188 166.758L385.258 169.688C384.242 171.203 382.883 172.383 381.18 173.227C379.492 174.055 377.594 174.469 375.484 174.469ZM374.805 152.742C373.242 152.742 371.977 153.289 371.008 154.383C370.055 155.477 369.445 157 369.18 158.953H380.031V158.531C379.906 156.625 379.398 155.188 378.508 154.219C377.617 153.234 376.383 152.742 374.805 152.742ZM408.109 174H402.414V148.641H408.109V174ZM402.062 142.055C402.062 141.18 402.336 140.453 402.883 139.875C403.445 139.297 404.242 139.008 405.273 139.008C406.305 139.008 407.102 139.297 407.664 139.875C408.227 140.453 408.508 141.18 408.508 142.055C408.508 142.914 408.227 143.633 407.664 144.211C407.102 144.773 406.305 145.055 405.273 145.055C404.242 145.055 403.445 144.773 402.883 144.211C402.336 143.633 402.062 142.914 402.062 142.055ZM428.547 167.109C428.547 166.094 428.125 165.32 427.281 164.789C426.453 164.258 425.07 163.789 423.133 163.383C421.195 162.977 419.578 162.461 418.281 161.836C415.438 160.461 414.016 158.469 414.016 155.859C414.016 153.672 414.938 151.844 416.781 150.375C418.625 148.906 420.969 148.172 423.812 148.172C426.844 148.172 429.289 148.922 431.148 150.422C433.023 151.922 433.961 153.867 433.961 156.258H428.266C428.266 155.164 427.859 154.258 427.047 153.539C426.234 152.805 425.156 152.438 423.812 152.438C422.562 152.438 421.539 152.727 420.742 153.305C419.961 153.883 419.57 154.656 419.57 155.625C419.57 156.5 419.938 157.18 420.672 157.664C421.406 158.148 422.891 158.641 425.125 159.141C427.359 159.625 429.109 160.211 430.375 160.898C431.656 161.57 432.602 162.383 433.211 163.336C433.836 164.289 434.148 165.445 434.148 166.805C434.148 169.086 433.203 170.938 431.312 172.359C429.422 173.766 426.945 174.469 423.883 174.469C421.805 174.469 419.953 174.094 418.328 173.344C416.703 172.594 415.438 171.562 414.531 170.25C413.625 168.938 413.172 167.523 413.172 166.008H418.703C418.781 167.352 419.289 168.391 420.227 169.125C421.164 169.844 422.406 170.203 423.953 170.203C425.453 170.203 426.594 169.922 427.375 169.359C428.156 168.781 428.547 168.031 428.547 167.109ZM458.219 142.477V148.641H462.695V152.859H458.219V167.016C458.219 167.984 458.406 168.688 458.781 169.125C459.172 169.547 459.859 169.758 460.844 169.758C461.5 169.758 462.164 169.68 462.836 169.523V173.93C461.539 174.289 460.289 174.469 459.086 174.469C454.711 174.469 452.523 172.055 452.523 167.227V152.859H448.352V148.641H452.523V142.477H458.219ZM465.297 161.086C465.297 158.602 465.789 156.367 466.773 154.383C467.758 152.383 469.141 150.852 470.922 149.789C472.703 148.711 474.75 148.172 477.062 148.172C480.484 148.172 483.258 149.273 485.383 151.477C487.523 153.68 488.68 156.602 488.852 160.242L488.875 161.578C488.875 164.078 488.391 166.312 487.422 168.281C486.469 170.25 485.094 171.773 483.297 172.852C481.516 173.93 479.453 174.469 477.109 174.469C473.531 174.469 470.664 173.281 468.508 170.906C466.367 168.516 465.297 165.336 465.297 161.367V161.086ZM470.992 161.578C470.992 164.188 471.531 166.234 472.609 167.719C473.688 169.188 475.188 169.922 477.109 169.922C479.031 169.922 480.523 169.172 481.586 167.672C482.664 166.172 483.203 163.977 483.203 161.086C483.203 158.523 482.648 156.492 481.539 154.992C480.445 153.492 478.953 152.742 477.062 152.742C475.203 152.742 473.727 153.484 472.633 154.969C471.539 156.438 470.992 158.641 470.992 161.578ZM492.625 161.086C492.625 158.602 493.117 156.367 494.102 154.383C495.086 152.383 496.469 150.852 498.25 149.789C500.031 148.711 502.078 148.172 504.391 148.172C507.812 148.172 510.586 149.273 512.711 151.477C514.852 153.68 516.008 156.602 516.18 160.242L516.203 161.578C516.203 164.078 515.719 166.312 514.75 168.281C513.797 170.25 512.422 171.773 510.625 172.852C508.844 173.93 506.781 174.469 504.438 174.469C500.859 174.469 497.992 173.281 495.836 170.906C493.695 168.516 492.625 165.336 492.625 161.367V161.086ZM498.32 161.578C498.32 164.188 498.859 166.234 499.938 167.719C501.016 169.188 502.516 169.922 504.438 169.922C506.359 169.922 507.852 169.172 508.914 167.672C509.992 166.172 510.531 163.977 510.531 161.086C510.531 158.523 509.977 156.492 508.867 154.992C507.773 153.492 506.281 152.742 504.391 152.742C502.531 152.742 501.055 153.484 499.961 154.969C498.867 156.438 498.32 158.641 498.32 161.578ZM547.188 167.109C547.188 166.094 546.766 165.32 545.922 164.789C545.094 164.258 543.711 163.789 541.773 163.383C539.836 162.977 538.219 162.461 536.922 161.836C534.078 160.461 532.656 158.469 532.656 155.859C532.656 153.672 533.578 151.844 535.422 150.375C537.266 148.906 539.609 148.172 542.453 148.172C545.484 148.172 547.93 148.922 549.789 150.422C551.664 151.922 552.602 153.867 552.602 156.258H546.906C546.906 155.164 546.5 154.258 545.688 153.539C544.875 152.805 543.797 152.438 542.453 152.438C541.203 152.438 540.18 152.727 539.383 153.305C538.602 153.883 538.211 154.656 538.211 155.625C538.211 156.5 538.578 157.18 539.312 157.664C540.047 158.148 541.531 158.641 543.766 159.141C546 159.625 547.75 160.211 549.016 160.898C550.297 161.57 551.242 162.383 551.852 163.336C552.477 164.289 552.789 165.445 552.789 166.805C552.789 169.086 551.844 170.938 549.953 172.359C548.062 173.766 545.586 174.469 542.523 174.469C540.445 174.469 538.594 174.094 536.969 173.344C535.344 172.594 534.078 171.562 533.172 170.25C532.266 168.938 531.812 167.523 531.812 166.008H537.344C537.422 167.352 537.93 168.391 538.867 169.125C539.805 169.844 541.047 170.203 542.594 170.203C544.094 170.203 545.234 169.922 546.016 169.359C546.797 168.781 547.188 168.031 547.188 167.109ZM563.125 148.641L563.289 151.289C565.07 149.211 567.508 148.172 570.602 148.172C573.992 148.172 576.312 149.469 577.562 152.062C579.406 149.469 582 148.172 585.344 148.172C588.141 148.172 590.219 148.945 591.578 150.492C592.953 152.039 593.656 154.32 593.688 157.336V174H587.992V157.5C587.992 155.891 587.641 154.711 586.938 153.961C586.234 153.211 585.07 152.836 583.445 152.836C582.148 152.836 581.086 153.188 580.258 153.891C579.445 154.578 578.875 155.484 578.547 156.609L578.57 174H572.875V157.312C572.797 154.328 571.273 152.836 568.305 152.836C566.023 152.836 564.406 153.766 563.453 155.625V174H557.758V148.641H563.125ZM614.688 174C614.438 173.516 614.219 172.727 614.031 171.633C612.219 173.523 610 174.469 607.375 174.469C604.828 174.469 602.75 173.742 601.141 172.289C599.531 170.836 598.727 169.039 598.727 166.898C598.727 164.195 599.727 162.125 601.727 160.688C603.742 159.234 606.617 158.508 610.352 158.508H613.844V156.844C613.844 155.531 613.477 154.484 612.742 153.703C612.008 152.906 610.891 152.508 609.391 152.508C608.094 152.508 607.031 152.836 606.203 153.492C605.375 154.133 604.961 154.953 604.961 155.953H599.266C599.266 154.562 599.727 153.266 600.648 152.062C601.57 150.844 602.82 149.891 604.398 149.203C605.992 148.516 607.766 148.172 609.719 148.172C612.688 148.172 615.055 148.922 616.82 150.422C618.586 151.906 619.492 154 619.539 156.703V168.141C619.539 170.422 619.859 172.242 620.5 173.602V174H614.688ZM608.43 169.898C609.555 169.898 610.609 169.625 611.594 169.078C612.594 168.531 613.344 167.797 613.844 166.875V162.094H610.773C608.664 162.094 607.078 162.461 606.016 163.195C604.953 163.93 604.422 164.969 604.422 166.312C604.422 167.406 604.781 168.281 605.5 168.938C606.234 169.578 607.211 169.898 608.43 169.898ZM631.562 174H625.867V138H631.562V174ZM643.844 174H638.148V138H643.844V174ZM669.156 142.477V148.641H673.633V152.859H669.156V167.016C669.156 167.984 669.344 168.688 669.719 169.125C670.109 169.547 670.797 169.758 671.781 169.758C672.438 169.758 673.102 169.68 673.773 169.523V173.93C672.477 174.289 671.227 174.469 670.023 174.469C665.648 174.469 663.461 172.055 663.461 167.227V152.859H659.289V148.641H663.461V142.477H669.156ZM676.234 161.086C676.234 158.602 676.727 156.367 677.711 154.383C678.695 152.383 680.078 150.852 681.859 149.789C683.641 148.711 685.688 148.172 688 148.172C691.422 148.172 694.195 149.273 696.32 151.477C698.461 153.68 699.617 156.602 699.789 160.242L699.812 161.578C699.812 164.078 699.328 166.312 698.359 168.281C697.406 170.25 696.031 171.773 694.234 172.852C692.453 173.93 690.391 174.469 688.047 174.469C684.469 174.469 681.602 173.281 679.445 170.906C677.305 168.516 676.234 165.336 676.234 161.367V161.086ZM681.93 161.578C681.93 164.188 682.469 166.234 683.547 167.719C684.625 169.188 686.125 169.922 688.047 169.922C689.969 169.922 691.461 169.172 692.523 167.672C693.602 166.172 694.141 163.977 694.141 161.086C694.141 158.523 693.586 156.492 692.477 154.992C691.383 153.492 689.891 152.742 688 152.742C686.141 152.742 684.664 153.484 683.57 154.969C682.477 156.438 681.93 158.641 681.93 161.578ZM113.758 217.133C113.758 213.227 114.664 210.094 116.477 207.734C118.289 205.359 120.719 204.172 123.766 204.172C126.453 204.172 128.625 205.109 130.281 206.984V194H135.977V230H130.82L130.539 227.375C128.836 229.438 126.562 230.469 123.719 230.469C120.75 230.469 118.344 229.273 116.5 226.883C114.672 224.492 113.758 221.242 113.758 217.133ZM119.453 217.625C119.453 220.203 119.945 222.219 120.93 223.672C121.93 225.109 123.344 225.828 125.172 225.828C127.5 225.828 129.203 224.789 130.281 222.711V211.883C129.234 209.852 127.547 208.836 125.219 208.836C123.375 208.836 121.953 209.57 120.953 211.039C119.953 212.492 119.453 214.688 119.453 217.625ZM147.977 230H142.281V204.641H147.977V230ZM141.93 198.055C141.93 197.18 142.203 196.453 142.75 195.875C143.312 195.297 144.109 195.008 145.141 195.008C146.172 195.008 146.969 195.297 147.531 195.875C148.094 196.453 148.375 197.18 148.375 198.055C148.375 198.914 148.094 199.633 147.531 200.211C146.969 200.773 146.172 201.055 145.141 201.055C144.109 201.055 143.312 200.773 142.75 200.211C142.203 199.633 141.93 198.914 141.93 198.055ZM168.414 223.109C168.414 222.094 167.992 221.32 167.148 220.789C166.32 220.258 164.938 219.789 163 219.383C161.062 218.977 159.445 218.461 158.148 217.836C155.305 216.461 153.883 214.469 153.883 211.859C153.883 209.672 154.805 207.844 156.648 206.375C158.492 204.906 160.836 204.172 163.68 204.172C166.711 204.172 169.156 204.922 171.016 206.422C172.891 207.922 173.828 209.867 173.828 212.258H168.133C168.133 211.164 167.727 210.258 166.914 209.539C166.102 208.805 165.023 208.438 163.68 208.438C162.43 208.438 161.406 208.727 160.609 209.305C159.828 209.883 159.438 210.656 159.438 211.625C159.438 212.5 159.805 213.18 160.539 213.664C161.273 214.148 162.758 214.641 164.992 215.141C167.227 215.625 168.977 216.211 170.242 216.898C171.523 217.57 172.469 218.383 173.078 219.336C173.703 220.289 174.016 221.445 174.016 222.805C174.016 225.086 173.07 226.938 171.18 228.359C169.289 229.766 166.812 230.469 163.75 230.469C161.672 230.469 159.82 230.094 158.195 229.344C156.57 228.594 155.305 227.562 154.398 226.25C153.492 224.938 153.039 223.523 153.039 222.008H158.57C158.648 223.352 159.156 224.391 160.094 225.125C161.031 225.844 162.273 226.203 163.82 226.203C165.32 226.203 166.461 225.922 167.242 225.359C168.023 224.781 168.414 224.031 168.414 223.109ZM201.203 217.578C201.203 221.5 200.312 224.633 198.531 226.977C196.75 229.305 194.359 230.469 191.359 230.469C188.578 230.469 186.352 229.555 184.68 227.727V239.75H178.984V204.641H184.234L184.469 207.219C186.141 205.188 188.414 204.172 191.289 204.172C194.383 204.172 196.805 205.328 198.555 207.641C200.32 209.938 201.203 213.133 201.203 217.227V217.578ZM195.531 217.086C195.531 214.555 195.023 212.547 194.008 211.062C193.008 209.578 191.57 208.836 189.695 208.836C187.367 208.836 185.695 209.797 184.68 211.719V222.969C185.711 224.938 187.398 225.922 189.742 225.922C191.555 225.922 192.969 225.195 193.984 223.742C195.016 222.273 195.531 220.055 195.531 217.086ZM212.102 230H206.406V194H212.102V230ZM233.477 230C233.227 229.516 233.008 228.727 232.82 227.633C231.008 229.523 228.789 230.469 226.164 230.469C223.617 230.469 221.539 229.742 219.93 228.289C218.32 226.836 217.516 225.039 217.516 222.898C217.516 220.195 218.516 218.125 220.516 216.688C222.531 215.234 225.406 214.508 229.141 214.508H232.633V212.844C232.633 211.531 232.266 210.484 231.531 209.703C230.797 208.906 229.68 208.508 228.18 208.508C226.883 208.508 225.82 208.836 224.992 209.492C224.164 210.133 223.75 210.953 223.75 211.953H218.055C218.055 210.562 218.516 209.266 219.438 208.062C220.359 206.844 221.609 205.891 223.188 205.203C224.781 204.516 226.555 204.172 228.508 204.172C231.477 204.172 233.844 204.922 235.609 206.422C237.375 207.906 238.281 210 238.328 212.703V224.141C238.328 226.422 238.648 228.242 239.289 229.602V230H233.477ZM227.219 225.898C228.344 225.898 229.398 225.625 230.383 225.078C231.383 224.531 232.133 223.797 232.633 222.875V218.094H229.562C227.453 218.094 225.867 218.461 224.805 219.195C223.742 219.93 223.211 220.969 223.211 222.312C223.211 223.406 223.57 224.281 224.289 224.938C225.023 225.578 226 225.898 227.219 225.898ZM252.789 221.844L257.945 204.641H264.016L253.938 233.844C252.391 238.109 249.766 240.242 246.062 240.242C245.234 240.242 244.32 240.102 243.32 239.82V235.414L244.398 235.484C245.836 235.484 246.914 235.219 247.633 234.688C248.367 234.172 248.945 233.297 249.367 232.062L250.188 229.883L241.281 204.641H247.422L252.789 221.844ZM279.812 230V195.875H291.508C295.367 195.875 298.305 196.648 300.32 198.195C302.336 199.742 303.344 202.047 303.344 205.109C303.344 206.672 302.922 208.078 302.078 209.328C301.234 210.578 300 211.547 298.375 212.234C300.219 212.734 301.641 213.68 302.641 215.07C303.656 216.445 304.164 218.102 304.164 220.039C304.164 223.242 303.133 225.703 301.07 227.422C299.023 229.141 296.086 230 292.258 230H279.812ZM285.742 214.602V225.266H292.328C294.188 225.266 295.641 224.805 296.688 223.883C297.734 222.961 298.258 221.68 298.258 220.039C298.258 216.492 296.445 214.68 292.82 214.602H285.742ZM285.742 210.242H291.555C293.398 210.242 294.836 209.828 295.867 209C296.914 208.156 297.438 206.969 297.438 205.438C297.438 203.75 296.953 202.531 295.984 201.781C295.031 201.031 293.539 200.656 291.508 200.656H285.742V210.242ZM337.188 230H331.281V214.836H316.023V230H310.094V195.875H316.023V210.078H331.281V195.875H337.188V230ZM351.906 195.875L361.75 222.031L371.57 195.875H379.234V230H373.328V218.75L373.914 203.703L363.836 230H359.594L349.539 203.727L350.125 218.75V230H344.219V195.875H351.906ZM404.102 221.211C404.102 219.711 403.57 218.555 402.508 217.742C401.461 216.93 399.562 216.109 396.812 215.281C394.062 214.453 391.875 213.531 390.25 212.516C387.141 210.562 385.586 208.016 385.586 204.875C385.586 202.125 386.703 199.859 388.938 198.078C391.188 196.297 394.102 195.406 397.68 195.406C400.055 195.406 402.172 195.844 404.031 196.719C405.891 197.594 407.352 198.844 408.414 200.469C409.477 202.078 410.008 203.867 410.008 205.836H404.102C404.102 204.055 403.539 202.664 402.414 201.664C401.305 200.648 399.711 200.141 397.633 200.141C395.695 200.141 394.188 200.555 393.109 201.383C392.047 202.211 391.516 203.367 391.516 204.852C391.516 206.102 392.094 207.148 393.25 207.992C394.406 208.82 396.312 209.633 398.969 210.43C401.625 211.211 403.758 212.109 405.367 213.125C406.977 214.125 408.156 215.281 408.906 216.594C409.656 217.891 410.031 219.414 410.031 221.164C410.031 224.008 408.938 226.273 406.75 227.961C404.578 229.633 401.625 230.469 397.891 230.469C395.422 230.469 393.148 230.016 391.07 229.109C389.008 228.188 387.398 226.922 386.242 225.312C385.102 223.703 384.531 221.828 384.531 219.688H390.461C390.461 221.625 391.102 223.125 392.383 224.188C393.664 225.25 395.5 225.781 397.891 225.781C399.953 225.781 401.5 225.367 402.531 224.539C403.578 223.695 404.102 222.586 404.102 221.211ZM425.57 217.133C425.57 213.227 426.477 210.094 428.289 207.734C430.102 205.359 432.531 204.172 435.578 204.172C438.266 204.172 440.438 205.109 442.094 206.984V194H447.789V230H442.633L442.352 227.375C440.648 229.438 438.375 230.469 435.531 230.469C432.562 230.469 430.156 229.273 428.312 226.883C426.484 224.492 425.57 221.242 425.57 217.133ZM431.266 217.625C431.266 220.203 431.758 222.219 432.742 223.672C433.742 225.109 435.156 225.828 436.984 225.828C439.312 225.828 441.016 224.789 442.094 222.711V211.883C441.047 209.852 439.359 208.836 437.031 208.836C435.188 208.836 433.766 209.57 432.766 211.039C431.766 212.492 431.266 214.688 431.266 217.625ZM468.883 230C468.633 229.516 468.414 228.727 468.227 227.633C466.414 229.523 464.195 230.469 461.57 230.469C459.023 230.469 456.945 229.742 455.336 228.289C453.727 226.836 452.922 225.039 452.922 222.898C452.922 220.195 453.922 218.125 455.922 216.688C457.938 215.234 460.812 214.508 464.547 214.508H468.039V212.844C468.039 211.531 467.672 210.484 466.938 209.703C466.203 208.906 465.086 208.508 463.586 208.508C462.289 208.508 461.227 208.836 460.398 209.492C459.57 210.133 459.156 210.953 459.156 211.953H453.461C453.461 210.562 453.922 209.266 454.844 208.062C455.766 206.844 457.016 205.891 458.594 205.203C460.188 204.516 461.961 204.172 463.914 204.172C466.883 204.172 469.25 204.922 471.016 206.422C472.781 207.906 473.688 210 473.734 212.703V224.141C473.734 226.422 474.055 228.242 474.695 229.602V230H468.883ZM462.625 225.898C463.75 225.898 464.805 225.625 465.789 225.078C466.789 224.531 467.539 223.797 468.039 222.875V218.094H464.969C462.859 218.094 461.273 218.461 460.211 219.195C459.148 219.93 458.617 220.969 458.617 222.312C458.617 223.406 458.977 224.281 459.695 224.938C460.43 225.578 461.406 225.898 462.625 225.898ZM493.914 223.109C493.914 222.094 493.492 221.32 492.648 220.789C491.82 220.258 490.438 219.789 488.5 219.383C486.562 218.977 484.945 218.461 483.648 217.836C480.805 216.461 479.383 214.469 479.383 211.859C479.383 209.672 480.305 207.844 482.148 206.375C483.992 204.906 486.336 204.172 489.18 204.172C492.211 204.172 494.656 204.922 496.516 206.422C498.391 207.922 499.328 209.867 499.328 212.258H493.633C493.633 211.164 493.227 210.258 492.414 209.539C491.602 208.805 490.523 208.438 489.18 208.438C487.93 208.438 486.906 208.727 486.109 209.305C485.328 209.883 484.938 210.656 484.938 211.625C484.938 212.5 485.305 213.18 486.039 213.664C486.773 214.148 488.258 214.641 490.492 215.141C492.727 215.625 494.477 216.211 495.742 216.898C497.023 217.57 497.969 218.383 498.578 219.336C499.203 220.289 499.516 221.445 499.516 222.805C499.516 225.086 498.57 226.938 496.68 228.359C494.789 229.766 492.312 230.469 489.25 230.469C487.172 230.469 485.32 230.094 483.695 229.344C482.07 228.594 480.805 227.562 479.898 226.25C478.992 224.938 478.539 223.523 478.539 222.008H484.07C484.148 223.352 484.656 224.391 485.594 225.125C486.531 225.844 487.773 226.203 489.32 226.203C490.82 226.203 491.961 225.922 492.742 225.359C493.523 224.781 493.914 224.031 493.914 223.109ZM510.109 207.406C511.969 205.25 514.32 204.172 517.164 204.172C522.57 204.172 525.312 207.258 525.391 213.43V230H519.695V213.641C519.695 211.891 519.312 210.656 518.547 209.938C517.797 209.203 516.688 208.836 515.219 208.836C512.938 208.836 511.234 209.852 510.109 211.883V230H504.414V194H510.109V207.406ZM553.422 217.578C553.422 221.516 552.539 224.648 550.773 226.977C549.023 229.305 546.609 230.469 543.531 230.469C540.562 230.469 538.25 229.398 536.594 227.258L536.312 230H531.156V194H536.852V207.078C538.492 205.141 540.703 204.172 543.484 204.172C546.578 204.172 549.008 205.32 550.773 207.617C552.539 209.914 553.422 213.125 553.422 217.25V217.578ZM547.727 217.086C547.727 214.336 547.242 212.273 546.273 210.898C545.305 209.523 543.898 208.836 542.055 208.836C539.586 208.836 537.852 209.914 536.852 212.07V222.523C537.867 224.727 539.617 225.828 542.102 225.828C543.883 225.828 545.258 225.164 546.227 223.836C547.195 222.508 547.695 220.5 547.727 217.812V217.086ZM557.148 217.086C557.148 214.602 557.641 212.367 558.625 210.383C559.609 208.383 560.992 206.852 562.773 205.789C564.555 204.711 566.602 204.172 568.914 204.172C572.336 204.172 575.109 205.273 577.234 207.477C579.375 209.68 580.531 212.602 580.703 216.242L580.727 217.578C580.727 220.078 580.242 222.312 579.273 224.281C578.32 226.25 576.945 227.773 575.148 228.852C573.367 229.93 571.305 230.469 568.961 230.469C565.383 230.469 562.516 229.281 560.359 226.906C558.219 224.516 557.148 221.336 557.148 217.367V217.086ZM562.844 217.578C562.844 220.188 563.383 222.234 564.461 223.719C565.539 225.188 567.039 225.922 568.961 225.922C570.883 225.922 572.375 225.172 573.438 223.672C574.516 222.172 575.055 219.977 575.055 217.086C575.055 214.523 574.5 212.492 573.391 210.992C572.297 209.492 570.805 208.742 568.914 208.742C567.055 208.742 565.578 209.484 564.484 210.969C563.391 212.438 562.844 214.641 562.844 217.578ZM600.695 230C600.445 229.516 600.227 228.727 600.039 227.633C598.227 229.523 596.008 230.469 593.383 230.469C590.836 230.469 588.758 229.742 587.148 228.289C585.539 226.836 584.734 225.039 584.734 222.898C584.734 220.195 585.734 218.125 587.734 216.688C589.75 215.234 592.625 214.508 596.359 214.508H599.852V212.844C599.852 211.531 599.484 210.484 598.75 209.703C598.016 208.906 596.898 208.508 595.398 208.508C594.102 208.508 593.039 208.836 592.211 209.492C591.383 210.133 590.969 210.953 590.969 211.953H585.273C585.273 210.562 585.734 209.266 586.656 208.062C587.578 206.844 588.828 205.891 590.406 205.203C592 204.516 593.773 204.172 595.727 204.172C598.695 204.172 601.062 204.922 602.828 206.422C604.594 207.906 605.5 210 605.547 212.703V224.141C605.547 226.422 605.867 228.242 606.508 229.602V230H600.695ZM594.438 225.898C595.562 225.898 596.617 225.625 597.602 225.078C598.602 224.531 599.352 223.797 599.852 222.875V218.094H596.781C594.672 218.094 593.086 218.461 592.023 219.195C590.961 219.93 590.43 220.969 590.43 222.312C590.43 223.406 590.789 224.281 591.508 224.938C592.242 225.578 593.219 225.898 594.438 225.898ZM624.789 209.844C624.039 209.719 623.266 209.656 622.469 209.656C619.859 209.656 618.102 210.656 617.195 212.656V230H611.5V204.641H616.938L617.078 207.477C618.453 205.273 620.359 204.172 622.797 204.172C623.609 204.172 624.281 204.281 624.812 204.5L624.789 209.844ZM626.852 217.133C626.852 213.227 627.758 210.094 629.57 207.734C631.383 205.359 633.812 204.172 636.859 204.172C639.547 204.172 641.719 205.109 643.375 206.984V194H649.07V230H643.914L643.633 227.375C641.93 229.438 639.656 230.469 636.812 230.469C633.844 230.469 631.438 229.273 629.594 226.883C627.766 224.492 626.852 221.242 626.852 217.133ZM632.547 217.625C632.547 220.203 633.039 222.219 634.023 223.672C635.023 225.109 636.438 225.828 638.266 225.828C640.594 225.828 642.297 224.789 643.375 222.711V211.883C642.328 209.852 640.641 208.836 638.312 208.836C636.469 208.836 635.047 209.57 634.047 211.039C633.047 212.492 632.547 214.688 632.547 217.625Z" fill="white"/>
</svg>
